/* XPM */
static char *result[] = {
/* columns rows colors chars-per-pixel */
"64 64 21 1 ",
"  c black",
". c #191508",
"X c #372E11",
"o c #5F4F1D",
"O c #60501D",
"+ c #61511E",
"@ c #6C5C2D",
"# c gray43",
"$ c #16A7D5",
"% c #16A9D6",
"& c #17ADDC",
"* c #17AEDD",
"= c #E8E6E1",
"- c #EBE9E4",
"; c #EDECE9",
": c #F6F6F5",
"> c #F7F7F6",
", c gray97",
"< c #F8F8F8",
"1 c white",
"2 c None",
/* pixels */
"2222222222222222222222222222222222222222222222222222222222222222",
"2222222222222222222222222222222222222222222222222222222222222222",
"2222222222222222222222222222OOO222222222222222222222222222222222",
"2222222222222222222222222OOOOOOOO2222222222222222222222222222222",
"22222222222222222222222OOOO<<<<>OOOO2222222222222222222222222222",
"2222222222222222222222OOOOO<O<O,OOOOO222222222222222222222222222",
"2222222222222222222222OOOOO<<<<<OOOOOO22222222222222222222222222",
"222222222222222222222OOOOOO-O,+<OOOOOOO2222222222222222222222222",
"22222222222222222222OOOOOO<@OOOO;OOOOOO2222222222222222222222222",
"2222222222222222222OOOOOOOO>,<,=oOOOOOOO222222222222222222222222",
"222222222222222222OOOOOOOO,OOOOO:OOOOOOOO22222222222222222222222",
"2222222222222222222OOOOX22222222222.OOOO222222222222222222222222",
"22222222222222222222222 22$12221&22 2222222222222222222222222222",
"22222222222222222222222 22*12221%22 2222222222222222222222222222",
"22222222222222222222222 22222222222 2222222222222222222222222222",
"22222222222222222222222 2222   2222 2222222222222222222222222222",
"22222222222##22222222222 222222222 22222222222222222222222222222",
"22222222222###22222222222         222222222222222222222222222222",
"222222222222###22222222222222 2222222222222222222222222222222222",
"2222222222222###2222222222222 2222222222222222222222222222222222",
"22222222222222###222222222222 2222222222222222222222222222222222",
"222222222222222###22222222222 2222222222222222222222222222222222",
"2222222222222222###2#22222222 2222222222222222222222222222222222",
"22222222222222222#####2222222 2222222222222222222222222222222222",
"222222222222222222##                 222222222222222222222222222",
"22222222222222222##2#22222222 2222222222222222222222222222222222",
"222222222222222222#22#2222222 2222222222222222222222222222222222",
"22222222222222222222222222222 2222222222222222222222222222222222",
"22222222222222222222222222222 2222222222222222222222222222222222",
"22222222222222222222222222222 2222222222222222222222222222222222",
"22222222222222222222222222222 2222222222222222222222222222222222",
"22222222222222222222222222222 2222222222222222222222222222222222",
"22222222222222222222222222222 2222222222222222222222222222222222",
"22222222222222222222222222222 2222222222222222222222222222222222",
"22222222222222222222222222222 2222222222222222222222222222222222",
"22222222222222222222222222222 2222222222222222222222222222222222",
"22222222222222222222222222222 2222222222222222222222222222222222",
"2222222222222222222222222222 2 222222222222222222222222222222222",
"2222222222222222222222222222 2 222222222222222222222222222222222",
"2222222222222222222222222222 2 222222222222222222222222222222222",
"2222222222222222222222222222 2 222222222222222222222222222222222",
"2222222222222222222222222222 2 222222222222222222222222222222222",
"2222222222222222222222222222 2 222222222222222222222222222222222",
"2222222222222222222222222222 2 222222222222222222222222222222222",
"2222222222222222222222222222 2 222222222222222222222222222222222",
"2222222222222222222222222222 2 222222222222222222222222222222222",
"2222222222222222222222222222 2 222222222222222222222222222222222",
"2222222222222222222222222222 OOO22222222222222222222222222222222",
"2222222222222222222222222222 2O222222222222222222222222222222222",
"2222222222222222222222222222 2O222222222222222222222222222222222",
"2222222222222222222222222222222222222222222222222222222222222222",
"2222222222222222222222222222222222222222222222222222222222222222",
"2222222222222222222222222222222222222222222222222222222222222222",
"2222222222222222222222222222222222222222222222222222222222222222",
"2222222222222222222222222222222222222222222222222222222222222222",
"2222222222222222222222222222222222222222222222222222222222222222",
"2222222222222222222222222222222222222222222222222222222222222222",
"2222222222222222222222222222222222222222222222222222222222222222",
"2222222222222222222222222222222222222222222222222222222222222222",
"2222222222222222222222222222222222222222222222222222222222222222",
"2222222222222222222222222222222222222222222222222222222222222222",
"2222222222222222222222222222222222222222222222222222222222222222",
"2222222222222222222222222222222222222222222222222222222222222222",
"2222222222222222222222222222222222222222222222222222222222222222"
};
