/* XPM */
static char *result[] = {
/* columns rows colors chars-per-pixel */
"64 64 8 1 ",
"  c #B09746",
". c #C2A854",
"X c #A61818",
"o c #D1B55B",
"O c #D61E1E",
"+ c #DDBF5F",
"@ c #BDA34D",
"# c #D32F25",
/* pixels */
"                                                                ",
"                                                                ",
"                                                                ",
"                                                                ",
"                                                                ",
"                                                                ",
"                                                                ",
"................................................................",
"....XXXXXXXXXXXXXXXX..................XXXXXX....................",
"ooooXXXXXXXXXXXXXXXXXX..............XXXOOOXXXXX.................",
"++++XXOOOOOOOOOOOOOOXXX..........ooXXXOOOOOOOXXXXX..............",
"+++++XXOOOOOOOOOOOOOOOXXoooooooooXXXXOOOOOOOOOXXXXXXXooooooooooo",
"++++++XXOOOOOOOOOOOOOOOXX+++++++XXXXOOOOOOOOOOOOOOXXXooooooooooo",
"oooooooXXOOOOOOOOOOOOOOXXX++++++XXXOOOOOOOOOOOOOOOOXXoooooooo+++",
"ooooooooXXOOOOOOOOOOOOOOXXX++++XXOOOOOOOOOOOOOOOOOXXXo++++++++++",
"ooooooooXXXOOOOOOOOOOOOOOXXXooXXOOOOOOOOOOOOOOOOOXXXX+++++++++++",
".....ooooXXXOOOOOOOOOOOOOOXXXXXOOOOOOOOOOOOOOOOOOXXX++++++++oooo",
"..........XXOOOOOOOOOOOOOOOXXXXOOOOOOOOOOOOOOOOOXXXooooooooooooo",
"...........XXOOOOOOOOOOOOOOOXXOOOOOOOOOOOOOOOOOOXXoooooooooooooo",
"@@..........XXOOOOO#########XX#OOOOOOOOOOOOOOOXXX.....ooooooooo.",
"@@@@@@@@@@...XXOO##OOOOOOOOOOOO########OOOOOOXXX................",
"@@@@@@@@@@@@@@XXXOOOOOOOOOOOOOOOOOOOOOO####OXX..................",
"@@@@@@@@@@@@@@@XXXOOOOOOOOOOOOOOOOOOOOOOOOOXX@@@@@@@@...........",
"  @       @@@@@@XXXOOOOOOOOOOOOOOOOOOOOOOOXX@@@@@@@@@@@@@@......",
"                 XXOOOOOOOOOOOOOOOOOOOOOOXXX@@@@@@@@@@@@@@@@@@@@",
"                  XXOOOOOOOOOOOOOOOOOOOOXXX@@@@@@@@@@@@@@@@@@@@@",
"                   XXXOOOOOOOOOOOOOOOOOOXXX     @@@@@@@@@@@@@@@@",
"                    XXXOOOOOOOOOOOOOOOOOXX         @@@@@@@@@@@@@",
"                      XXOOOOOOOOOOOOOOOOXX            @@@@@@@@@@",
"    ..........         XXOOOOOOOOOOOOOOXX                  @@@@@",
"........................X##OOOOOO#####XX                        ",
"......................XXXOO######OOOOXXX........................",
".....................XXXOOOOOOOOOOOOOXX.........................",
"....................XXXOOOOOOOOOOOOOXXX.........................",
"...........ooooooooXXXOOOOOOOOOOOOOOOXX.oooooo..................",
"...ooooooooooooooooXXXOOOOOOOOOOOOOOOXXXoooooooo.......oooooo...",
"ooooooooooooooooooXXXOOOOOOOOOOOOOOOOOXXoooooooooooooooooooooooo",
"ooooooooooooooooooXXOOOOOOOOOOOOOOOOOOOXX++ooooooooooooooooooooo",
"oo++++++oooooooooXXXOOOOOOOOOOOOOOOOOOOXX+++++++oooooooooo++++++",
"+++++++++++++++++XXOOOOOOOOOOXOOOOOOOOOOXX++++++++++++++++++++++",
"++++++++++++++++XXOOOOOOOOOOXXXOOOOOOOOOXXX+++++++++++++++++++++",
"+++++++++++++++XXXOOOOOOOOOXXXXOOOOOOOOOOXX+++++++++++++++++++++",
"+++++++++++++ooXXOOOOOOOOOOXXoXXOOOOOOOOOOXXooo+++++++++++++++oo",
"ooooooo++++oooXXOOOOOOOOOOOXoooXXOOOOOOOOOOXXooooooo+++++ooooooo",
"oooooooooooooXXXOOOOOOOOOOXXoooXXOOOOOOOOOOOXooooooooooooooooooo",
"oooooooooooooXXOOOOOOOOOOXXoooooXXOOOOOOOOOOXXoooooooooooooooooo",
"ooooooooooooXXXOOOOOOOOOXXX.o.oooXXOOOOOOOOOOXXooooooo..oooooooo",
"ooo..oooo...XXOOOOOOOOOOXX....oooXXOOOOOOOOOOXXoo........ooooo..",
"...........XXXOOOOOOOOOOX.........XXOOOOOOOOOOXX................",
"...........XXOOOOOOOOOOXX..........XOOOOOOOOOOXX................",
"......@@@.XXXOOOOOOOOOXX@@@@@@@@...XXXOOOOOOOOOXX@.........@@..@",
"@@@@@@@@@@XXOOOOOOOOOOXX@@@@@@@@@@@@XXXOOOOOOOOXX@@@@@@@@@@@@@@@",
"@@@@@@@@@@XXXXXXXXXXXXXX@@@@@@@@@@@@@XXXXOOOOOOXX@@@@@@@@@@@@@@@",
"@@@@  @@@@XXXXXXXXXXXXXX@@@@@@@@@@@@@XXXXXXXXXXXXX@ @@@@      @@",
"@@                   @@               XXXXXXXXXXXX              ",
"                                                                ",
"                                                                ",
"                                                                ",
"            @@                           @@@@@                  ",
"@@@@@@     @@@          @@@          @@@@@@@@@@@@     @@@@@@@@  ",
"@@@@@@@@@@@@@@@@@@@@@@@@@@@@@@@@@@@@@@@@@@@@@@@@@@@@@@@@@@@@@@@@",
"@@@..@@@@@@@@@@@@@@@@@@@@@@@@@@@@@@@@@@@@@@@@@@@@@@@@@@@@@@@@@@@",
".....@@@@@@@@@..@@.@@@@@@@@.@@@@.........@@@@@@@..@@@@@@@..@@@@@",
"......@@@@...........@@@@..................@@.......@@@........@"
};
