/* XPM */
static char *result[] = {
/* columns rows colors chars-per-pixel */
"64 64 8 1 ",
"  c #B09746",
". c #C2A854",
"X c #D1B55B",
"o c #DDBF5F",
"O c #BDA34D",
"+ c white",
"@ c #1C71CB",
"# c #C63232",
/* pixels */
"                                                                ",
"                                                                ",
"                                                                ",
"                                                                ",
"                                                                ",
"                                                                ",
"                                                                ",
"................................................................",
"................................................................",
"XXXXXXXXXX...........................XXX........................",
"oooooXXXXXXXX........XX..........XXXXXXXXXX.....................",
"ooooooooXXXXXXXXXXXXXXXXXXXXXXXXXXXoXXXXXXXXXXXXXXXXXXXXXXXXXXXX",
"oooooooooooXXXXXXXXXoooooooooooooooooooooXXXXXXXXXXXXXXXXXXXXXXX",
"XXXXXXXooooooooooooooooooooooooooooooooooooooXXXXXXXXXXXXXXXXooo",
"XXXXXXXXXooooooooooooooooooooooooooooooooooooooooXXXXXoooooooooo",
"XXXXXXXXXXXXXoooooooXXXXXXXXXXXXXXXXXXXXoooooooooooooooooooooooo",
".....XXXXXXXXXXXXXXXXXXXXXXXXXXXXXXXXXXXXXXXooooooooooooooooXXXX",
"..........XXXXXXXXXXXX...XXXXXXXXXXXXXXXXXXXXXXXXXXXXXXXXXXXXXXX",
"..........................................XXXXXXXXXXXXXXXXXXXXXX",
"OO....................................................XXXXXXXXX.",
"OOOOOOOOOO.........OOOOOOOOOOOO.................................",
"OOOOOOOOOOOOOOOOOOOOOOOOOOOOOOOOOOOOOOO.........................",
"OOOOOOOOOOOOOOOOOOOOOOOOOOOOOOOOOOOOOOOOOOOOOOOOOOOOO...........",
"  O       OOOOOOOOOOO        OOOOOOOOOOOOOOOOOOOOOOOOOOOOO......",
"                               OOOOOOOOOOOOOOOOOOOOOOOOOOOOOOOOO",
"                                     O   OOOOOOOOOOOOOOOOOOOOOOO",
"                    ++++++++++                  OOOOOOOOOOOOOOOO",
"                    +@@@@@@@@+++                   OOOOOOOOOOOOO",
"                    +@@@@@@@@@@+++                    OOOOOOOOOO",
"    ..........     ++@ooooooooooo++                        OOOOO",
"...................+@@ooooo#o#oooo+.....                        ",
"...................+@@oooooo#ooo+++.............................",
"...................+@@ooooo#o#o++...............................",
"...................+@@oooooooo++................................",
"...........XXXXXXXX++@ooooooooo+++......XXXXXX..................",
"...XXXXXXXXXXXXXXXXX+@ooooooooooo++...XXXXXXXXXX.......XXXXXX...",
"XXXXXXXXXXXXXXXXXXXX+@ooooooooooo++XXXXXXXXXXXXXXXXXXXXXXXXXXXXX",
"XXXXXXXXXXXXXXXXXXXX+@@@@@@@@@@@++oXXXXooooXXXXXXXXXXXXXXXXXXXXX",
"XXooooooXXXXXXXXXooo+@@@@@@@@@@++oooooooooooooooXXXXXXXXXXoooooo",
"ooooooooooooooooooooo+++++++++++oooooooooooooooooooooooooooooooo",
"oooooooooooooooooooooooooooooooooooooooooooooooooooooooooooooooo",
"oooooooooooooooooooooooooooooooooooooooooooooooooooooooooooooooo",
"oooooooooooooXXoooooooooooooXXXXoooooooXXXXXXXXoooooooooooooooXX",
"XXXXXXXooooXXXXXXoooooXXXXXXXXXXXXXXoXXXXXXXXXXXXXXXoooooXXXXXXX",
"XXXXXXXXXXXXXXXXXXXXXXXXXXXXXXXXXXXXXXXXXXXXXXXXXXXXXXXXXXXXXXXX",
"XXXXXXXXXXXXXXXXXXXXXXXXXXXXXXXXXXXXXXXXXXXXXXXXXXXXXXXXXXXXXXXX",
"XXXXXXXXXXXXXXXXXXXXX.......X.XXXXXXXXX...XXXXXXXXXXXX..XXXXXXXX",
"XXX..XXXX........XXX..........XXXXXX........XXXXX........XXXXX..",
"................................................................",
"................................................................",
"......OOO..............OOOOOOOOO..........OOOOOOOO.........OO..O",
"OOOOOOOOOOOOOOOOOOOOOOOOOOOOOOOOOOOOOOOOOOOOOOOOOOOOOOOOOOOOOOOO",
"OOOOOOOOOOOOOOOOOOOOOOOOOOOOOOOOOOOOOOOOOOOOOOOOOOOOOOOOOOOOOOOO",
"OOOO  OOOOOOOOOOOOOOOOOOOOOOOOOOOOOOO     OO   OOOO OOOO      OO",
"OO                   OO                                         ",
"                                                                ",
"                                                                ",
"                                                                ",
"            OO                           OOOOO                  ",
"OOOOOO     OOO          OOO          OOOOOOOOOOOO     OOOOOOOO  ",
"OOOOOOOOOOOOOOOOOOOOOOOOOOOOOOOOOOOOOOOOOOOOOOOOOOOOOOOOOOOOOOOO",
"OOO..OOOOOOOOOOOOOOOOOOOOOOOOOOOOOOOOOOOOOOOOOOOOOOOOOOOOOOOOOOO",
".....OOOOOOOOO..OO.OOOOOOOO.OOOO.........OOOOOOO..OOOOOOO..OOOOO",
"......OOOO...........OOOO..................OO.......OOO........O"
};
