/* XPM */
static char *result[] = {
/* columns rows colors chars-per-pixel */
"64 64 4 1 ",
"  c #1C71CB",
". c #4D96E2",
"X c #1B6ABD",
"o c #185DA6",
/* pixels */
"                                        .XXoooo                 ",
"                oooooo                  .. XX ooo               ",
"        oo     oo .X  o                  ...XXXXooo             ",
"      ooXoo       .XX  o                   ....XX o             ",
"      o.X oo       ..XXoo                     .. oo             ",
"      o XXX oo      .. Xoo                       oo             ",
"         .XX ooo     ...Xoooo                           o       ",
"          ..X  oo      .XXX o     ooooooooooooo        oooo     ",
"           ..XX oo     oooooo    ooXXXXXXXXX  ooo      oX oooo  ",
"            .. X  oo               ....    XXXXXooo    o..XX  oo",
"             ...XXXoo                 ..........X oo     ..XXXX ",
"               .. XXoo      oooooo             .   o       .....",
"                  ooo       o XX oo                             ",
"     ooo        oo          o .XXX ooooo                        ",
"    oo ooo      o           o ...XXXXX ooooooo                  ",
"      .XXo                      ...   X   X  oooo               ",
"      ..Xooo                       .....  X   XXoooooo          ",
"       ..X oo                          ... XXX    XX oo         ",
"        .XXXoo                           .....       oo         ",
"        .. XXoo                              ......  o          ",
"         .. XXoo                                                ",
"           ..  o                                                ",
" oooo       .          oooooooo                  .              ",
"   Xoooo               oXXXXX o                  ..XXXXXX       ",
"   .XXXooo     ooo       .. X ooo                  ...  XX      ",
"   ......ooo   o oo       ..XX  ooo                  .... XXX   ",
"        .. o   oXXoooooo   ..XXX  oo                    .....   ",
"               o.XXXXXXoo   .. XXXXoooo                         ",
"                ....  X oo   ...   XX o                         ",
"                   ...XXXoooo  .....X oo           ooooooo      ",
"                     .....XXXoo    ...Xoo          oXXX  ooooo  ",
"                         ..   oo     .  o           ..XXXXX  ooo",
"                          .....o                     .....XX  XX",
"      ooo                      o                       ....XXX  ",
"     o Xoo                                                 .....",
"       .Xooo                                                   .",
"       .XXXoooooo                                               ",
"       ...  XX  oo                                              ",
"         ... XXXXoo                                             ",
"           .... XXoo                   oooooo                   ",
"              ...  oo                  o .  ooo                 ",
"                ....oo                   .X XXoooo              ",
"    oo               o                   ..XXXX  oooo           ",
"  oooo                                    ... XX    ooo         ",
"  o.Xo                                      .....XXX  ooo       ",
"   .Xoo                                         ....XXX oo      ",
"   .XXooo                 oooo                     ..... o      ",
"   .. XXoo                o.Xoo                        ..o      ",
"    ...X o                 .X o                                 ",
"      . Xoo                 .Xo   o                             ",
"      .. Xooo               ..oooooo                            ",
"       .. XXoo               .   XXoo                           ",
"        ..   o               .... X o                           ",
"         ....oo                 ..X oo                          ",
"              o                  ...XXoooo             oooo     ",
"                       ooo         ....  o             oXXooooo ",
"                        .oo            . o             o..XXXooo",
"                        . oo                             ....XXo",
"                         .Xo                                ....",
"                         .XXo                                   ",
"                         ..Xooooooooo                           ",
"                          .XXooXXX  oo                          ",
"                          ....   XXX o                          ",
"                             ..... XXoo                         "
};
